<?xml version="1.0"?>
<svg xmlns="http://www.w3.org/2000/svg" height="512px" viewBox="-72 0 464 464" width="512px" class=""><g><path d="m96 0v96h-96v368h320v-464zm0 0" fill="#ffdaaa" data-original="#FFDAAA" class="" style="fill:#CBF1F0" data-old_color="#ffdaaa"/><path d="m96 0-96 96h96zm0 0" fill="#ff7956" data-original="#FF7956" class="" style="fill:#3ACBC7" data-old_color="#ff7956"/><path d="m0 232v232h208c-114.96875 0-208-103.769531-208-232zm0 0" fill="#ffc477" data-original="#FFC477" class="active-path" style="fill:#72DAD6" data-old_color="#ffc477"/><g fill="#ed1c24"><path d="m118.625 182.054688-22.625 22.632812-22.625-22.632812-11.3125 11.3125 22.625 22.632812-22.625 22.632812 11.3125 11.3125 22.625-22.632812 22.625 22.632812 11.3125-11.3125-22.625-22.632812 22.625-22.632812zm0 0" data-original="#ED1C24" class="" style="fill:#2A9D99" data-old_color="#ED1C24"/><path d="m193.375 249.945312 22.625-22.632812 22.625 22.632812 11.3125-11.3125-22.625-22.632812 22.625-22.632812-11.3125-11.3125-22.625 22.632812-22.625-22.632812-11.3125 11.3125 22.625 22.632812-22.625 22.632812zm0 0" data-original="#ED1C24" class="" style="fill:#2A9D99" data-old_color="#ED1C24"/><path d="m90.34375 322.34375 11.3125 11.3125 7.433594-7.433594c28.136718-28.0625 73.683594-28.0625 101.820312 0l7.433594 7.433594 11.3125-11.3125-7.433594-7.433594c-34.386718-34.308594-90.058594-34.308594-124.445312 0zm0 0" data-original="#ED1C24" class="" style="fill:#2A9D99" data-old_color="#ED1C24"/></g></g> </svg>
