<?xml version="1.0" encoding="UTF-8"?>
<!-- Generator: Adobe Illustrator 16.0.0, SVG Export Plug-In . SVG Version: 6.00 Build 0)  -->
<!DOCTYPE svg PUBLIC "-//W3C//DTD SVG 1.1//EN" "http://www.w3.org/Graphics/SVG/1.1/DTD/svg11.dtd">
<svg version="1.1" id="Camada_1" xmlns="http://www.w3.org/2000/svg" xmlns:xlink="http://www.w3.org/1999/xlink" x="0px" y="0px" width="1700.79px" height="544.473px" viewBox="0 0 1700.79 544.473" enable-background="new 0 0 1700.79 544.473" xml:space="preserve">
<g>
	<path fill="#3ACBC7" d="M26.894,133.323c8.088,0,14.8,4.159,14.8,12.482v36.88c20.97-36.735,50.909-55.106,89.819-55.106   c22.879,0,41.662,6.415,56.343,19.228c14.684,12.83,22.03,29.381,22.03,49.652c0,13.405-3.355,24.599-10.046,33.585   c-6.7,8.996-15.212,13.492-25.545,13.492c-13.775,0-20.665-6.316-20.665-18.943c0-11.486,5.819-17.223,17.463-17.223   c3.104,0,6.216,1.15,9.319,3.446c3.104,2.291,5.238,3.441,6.406,3.441c5.04,0,7.569-6.831,7.569-20.502   c0-15.95-5.939-28.964-17.795-39.024c-11.868-10.067-27.365-15.099-46.497-15.099c-32.917,0-56.829,12.228-71.755,36.659   c-11.103,18.337-16.646,46.587-16.646,84.782v48.706c0,44.688,1.525,71.614,4.591,80.772c3.059,9.169,11.856,13.743,26.407,13.743   c2.671,0,6.691,0,12.055,0c5.353,0,9.374,0,12.055,0h2.87c8.414,0,12.628,2.118,12.628,6.344c0,4.574-3.65,6.864-10.941,6.864   h-1.733l-20.162-1.15l-23.625-2.295H38.553H28.186L26.894,133.323z"/>
	<path fill="#A9A9A9" d="M496.968,133.323c7.652,0,11.482,4.013,11.482,12.053c0,2.299,0,4.215,0,5.736v41.335   c20.613-43.245,54.777-64.868,102.494-64.868c37.024,0,66.408,12.827,88.167,38.458c21.76,25.65,32.641,60.474,32.641,104.486   c0,45.57-11.741,82.392-35.214,110.52c-23.481,28.138-54.301,42.198-92.466,42.198c-44.281,0-76.159-18.172-95.622-54.536v48.219   c0,45.148,1.525,72.422,4.591,81.805c3.059,9.372,11.86,14.065,26.407,14.065c2.674,0,6.692-0.266,12.055-0.765   c5.355-0.521,9.372-0.775,12.055-0.775c0.763-0.51,1.911-0.76,3.444-0.76c8.036,0,12.055,2.581,12.055,7.754   c0,4.776-3.65,7.171-10.944,7.171h-1.728l-20.166-2.873h-39.761h-11.515 M606.646,411.184c33.493,0,60.132-12.38,79.917-37.145   c19.786-24.779,29.691-57.936,29.691-99.496c0-43.064-9.043-76.311-27.126-99.747c-18.081-23.44-43.859-35.164-77.352-35.164   c-31.59,0-56.705,10.864-75.352,32.59c-11.041,12.571-18.466,25.823-22.27,39.724c-3.802,13.906-5.705,34.012-5.705,60.305   c0,28.226,0.566,46.72,1.714,55.475c2.655,20.583,9.506,37.154,20.548,49.732C550.122,399.949,575.433,411.184,606.646,411.184z"/>
	<path fill="#A9A9A9" d="M952.355,347.834l-7.969,14.467c-4.952,8.418-12.553,16.739-21.68,25.919   c-23.6,23.35-52.902,35.021-87.91,35.021c-27.4,0-49.662-7.28-66.785-21.814c-17.133-14.539-25.69-33.486-25.69-56.835   c0-19.509,6.136-36.359,18.424-50.521c12.28-14.162,28.584-23.35,48.928-27.57c13.813-2.672,30.13-4.598,48.929-5.748   c31.088-1.897,53.534-7.327,67.351-16.272c13.813-8.956,20.727-22.758,20.727-41.433c0-19.034-7.514-34.361-22.54-45.985   c-15.031-11.616-34.871-17.43-59.521-17.43c-25.811,0-47.107,5.509-63.861,16.516c-16.763,11.003-25.14,24.856-25.14,41.545   c0,6.076,1.739,9.105,5.237,9.105c0.773,0,1.938-0.761,3.488-2.296c0-0.375,0.386-1.524,1.168-3.447   c2.71-6.504,7.946-9.755,15.707-9.755c11.633,0,17.453,6.123,17.453,18.371c0,6.509-2.583,12.147-7.751,16.929   c-5.164,4.789-11.39,7.176-18.654,7.176c-8.808,0-16.36-3.342-22.673-10.049c-6.316-6.689-9.474-14.632-9.474-23.822   c0-20.661,9.85-37.881,29.564-51.659c19.704-13.783,44.289-20.668,73.769-20.668c29.846,0,53.378,7.065,70.598,21.194   c18.749,15.658,28.135,40.111,28.135,73.337v89.406C962.184,311.516,961.804,327.76,952.355,347.834z M837.042,411.184   c30.614,0,56.537-10.673,77.782-32.034c21.239-21.358,31.857-47.099,31.857-77.25V246.39c0-3.813-0.77-5.721-2.294-5.721   c-0.386,0-2.496,2.296-6.312,6.884c-12.261,14.925-39.42,23.743-81.519,26.415c-24.494,1.525-42.764,4.39-54.818,8.576   c-12.055,4.202-22.104,11.256-30.138,21.164c-9.184,11.056-13.777,24.78-13.777,41.162c0,19.063,7.463,34.872,22.388,47.455   C795.136,404.893,814.077,411.184,837.042,411.184z"/>
	<path fill="#A9A9A9" d="M1667.953,347.834l-7.97,14.467c-4.948,8.418-12.549,16.739-21.679,25.919   c-23.6,23.35-52.902,35.021-87.911,35.021c-27.396,0-49.663-7.28-66.78-21.814c-17.135-14.539-25.694-33.486-25.694-56.835   c0-19.509,6.138-36.359,18.427-50.521c12.278-14.162,28.584-23.35,48.926-27.57c13.814-2.672,30.128-4.598,48.93-5.748   c31.088-1.897,53.534-7.327,67.351-16.272c13.816-8.956,20.724-22.758,20.724-41.433c0-19.034-7.514-34.361-22.537-45.985   c-15.031-11.616-34.871-17.43-59.521-17.43c-25.813,0-47.105,5.509-63.861,16.516c-16.762,11.003-25.14,24.856-25.14,41.545   c0,6.076,1.74,9.105,5.237,9.105c0.771,0,1.936-0.761,3.486-2.296c0-0.375,0.388-1.524,1.171-3.447   c2.709-6.504,7.944-9.755,15.705-9.755c11.631,0,17.451,6.123,17.451,18.371c0,6.509-2.581,12.147-7.748,16.929   c-5.165,4.789-11.389,7.176-18.656,7.176c-8.81,0-16.36-3.342-22.676-10.049c-6.317-6.689-9.471-14.632-9.471-23.822   c0-20.661,9.851-37.881,29.565-51.659c19.71-13.783,44.29-20.668,73.765-20.668c29.847,0,53.381,7.065,70.603,21.194   c18.747,15.658,28.13,40.111,28.13,73.337v89.406C1677.778,311.516,1677.398,327.76,1667.953,347.834z M1552.637,411.184   c30.616,0,56.542-10.673,77.787-32.034c21.236-21.358,31.852-47.099,31.852-77.25V246.39c0-3.813-0.768-5.721-2.292-5.721   c-0.385,0-2.492,2.296-6.312,6.884c-12.256,14.925-39.422,23.743-81.516,26.415c-24.495,1.525-42.768,4.39-54.82,8.576   c-12.055,4.202-22.101,11.256-30.138,21.164c-9.185,11.056-13.78,24.78-13.78,41.162c0,19.063,7.465,34.872,22.393,47.455   C1510.735,404.893,1529.677,411.184,1552.637,411.184z"/>
	<path fill="#A9A9A9" d="M983.847,350.912c-1.324-17.938-0.575-31.954-1.72-41.909s-1.72-15.125-1.72-15.508   c0-6.507,2.482-9.765,7.46-9.765c5.354,0,8.037,4.728,8.037,14.167c0,0.382-0.195,2.172-0.575,5.386   c-0.385,3.213-0.575,6.703-0.575,10.483c-0.385,5.294-0.575,10.574-0.575,15.861c0,24.162,9.214,43.802,27.641,58.903   c18.421,15.097,42.406,22.652,71.964,22.652c27.64,0,49.896-6.479,66.786-19.473c16.889-12.988,25.34-29.985,25.34-50.99   c0-19.101-6.331-33.04-18.997-41.832c-12.666-8.784-34.928-15.083-66.783-18.914c-37.23-4.194-62.176-8.979-74.842-14.329   c-10.753-4.59-19.392-12.13-25.912-22.633c-6.528-10.491-9.783-21.86-9.783-34.085c0-22.917,9.271-42.202,27.838-57.856   c18.557-15.66,41.811-23.494,69.747-23.494c37.884,0,66.966,15.693,87.25,47.072V147.1c0-11.098,2.3-16.648,6.893-16.648   c4.59,0,6.885,3.065,6.885,9.181c0,1.924-0.575,6.7-1.72,14.352c0,0.775-0.198,3.259-0.575,7.465   c-0.383,4.214-0.569,8.034-0.569,11.48l-0.576,21.239c0,15.696,0.188,25.166,0.576,28.412c0.374,3.26,0.757,6.414,1.145,9.472   v5.169c0,6.513-2.49,9.757-7.46,9.757c-4.598,0-6.893-3.039-6.893-9.142v-1.134l1.535-13.132c0.505-4.568,0.76-5.902,0.76-4   c0-23.6-7.995-42.821-23.979-57.664c-15.991-14.85-36.9-22.274-62.717-22.274c-23.893,0-43.634,6.207-59.24,18.619   c-15.608,12.415-23.398,28.364-23.398,47.834c0,18.723,6.041,32.188,18.133,40.393c12.088,8.214,34.251,14.032,66.5,17.472   c34.154,3.448,59.487,8.799,75.986,16.046c23.797,10.322,35.695,29.048,35.695,56.173c0,25.584-10.015,46.493-30.053,62.728   c-20.039,16.226-45.885,24.344-77.57,24.344c-45.031,0-78.24-16.08-99.604-48.224C994.179,375.018,984.643,361.666,983.847,350.912   z"/>
	<path fill="#A9A9A9" d="M1221.201,350.912c-1.324-17.938-0.574-31.954-1.725-41.909c-1.145-9.955-1.717-15.125-1.717-15.508   c0-6.507,2.486-9.765,7.462-9.765c5.357,0,8.037,4.728,8.037,14.167c0,0.382-0.195,2.172-0.575,5.386   c-0.383,3.213-0.575,6.703-0.575,10.483c-0.382,5.294-0.575,10.574-0.575,15.861c0,24.162,9.214,43.802,27.636,58.903   c18.427,15.097,42.408,22.652,71.972,22.652c27.632,0,49.895-6.479,66.783-19.473c16.889-12.988,25.338-29.985,25.338-50.99   c0-19.101-6.331-33.04-18.992-41.832c-12.666-8.784-34.928-15.083-66.785-18.914c-37.234-4.194-62.176-8.979-74.845-14.329   c-10.749-4.59-19.387-12.13-25.91-22.633c-6.528-10.491-9.783-21.86-9.783-34.085c0-22.917,9.271-42.202,27.838-57.856   c18.558-15.66,41.813-23.494,69.75-23.494c37.881,0,66.963,15.693,87.25,47.072V147.1c0-11.098,2.298-16.648,6.89-16.648   c4.588,0,6.885,3.065,6.885,9.181c0,1.924-0.575,6.7-1.723,14.352c0,0.775-0.192,3.259-0.574,7.465   c-0.386,4.214-0.57,8.034-0.57,11.48l-0.572,21.239c0,15.696,0.188,25.166,0.572,28.412c0.377,3.26,0.76,6.414,1.145,9.472v5.169   c0,6.513-2.492,9.757-7.459,9.757c-4.593,0-6.888-3.039-6.888-9.142v-1.134l1.538-13.132c0.496-4.568,0.757-5.902,0.757-4   c0-23.6-7.995-42.821-23.981-57.664c-15.997-14.85-36.898-22.274-62.717-22.274c-23.894,0-43.635,6.207-59.24,18.619   c-15.612,12.415-23.404,28.364-23.404,47.834c0,18.723,6.047,32.188,18.138,40.393c12.091,8.214,34.254,14.032,66.5,17.472   c34.152,3.448,59.482,8.799,75.983,16.046c23.8,10.322,35.698,29.048,35.698,56.173c0,25.584-10.018,46.493-30.052,62.728   c-20.04,16.226-45.891,24.344-77.568,24.344c-45.034,0-78.242-16.08-99.607-48.224   C1231.533,375.018,1221.998,361.666,1221.201,350.912z"/>
	<path fill="#3ACBC7" d="M476.512,134.506c-23.33,108.34,40.13,146.273-30.739,113.515c-52.694-24.355-139.482,1.01-126.314-2.511   c63.434-16.972,78.932-19.188,93.834-27.006c27.968-14.661,20.969-24.508,15.505-34.547c-15.822-29.06-46.544-44.387-76.866-44.138   c-26.403,0.222-55.196,6.407-74.139,21.071c-18.942,14.662-32.432,35.314-40.468,61.974c-3.067,9.902-3.417,18.198-4.593,24.57   c-4.066,21.999-2.87,35.5-2.87,35.5c0,38.142,10.451,68.91,31.357,92.349c20.906,23.438,48.248,35.151,82.006,35.151   c36.445,0,65.021-12.729,85.739-38.217c8.055-9.889,13.813-20.73,17.266-32.528c0-1.137,0.959-5.899,2.879-14.267   c1.525-6.46,4.405-9.697,8.628-9.697c4.603,0,6.907,2.68,6.907,8.035c0,6.51-2.106,15.123-6.315,25.832   c-9.185,22.963-23.822,40.859-43.916,53.666c-20.089,12.822-43.535,19.243-70.318,19.243c-39.034,0-70.418-13.207-94.143-39.616   c-23.732-26.405-35.589-61.222-35.589-104.495c0-44.783,12.343-81.232,37.027-109.357c24.682-28.135,50.357-42.201,101.725-42.201   c54.911,0,69.746,32.602,94.468,55.505C456.983,191.042,480.645,115.319,476.512,134.506z"/>
</g>
</svg>